<svg xmlns="http://www.w3.org/2000/svg" style="background: rgba(0, 0, 0, 0);" preserveAspectRatio="xMidYMid" viewBox="110.26 41.82 279.48 113.88"><defs><filter id="editing-hole" x="-100%" y="-100%" width="300%" height="300%"><feFlood flood-color="#000000" result="black"></feFlood><feMorphology operator="dilate" radius="2" in="SourceGraphic" result="erode"></feMorphology><feGaussianBlur in="erode" stdDeviation="4" result="blur"></feGaussianBlur><feOffset in="blur" dx="2" dy="2" result="offset"></feOffset><feComposite operator="atop" in="offset" in2="black" result="merge"></feComposite><feComposite operator="in" in="merge" in2="SourceGraphic" result="inner-shadow"></feComposite></filter></defs><g filter="url(#editing-hole)"><g transform="translate(105.93999433517456, 131.94000333547592)"><path d="M97.08 23.76L97.08 23.76Q91.68 23.76 86.88 21.96L86.88 21.96L86.88 21.96Q82.08 20.16 78.18 17.58L78.18 17.58L78.18 17.58Q74.28 15 68.88 10.80L68.88 10.80L68.88 10.80Q63 6.24 58.98 3.72L58.98 3.72L58.98 3.72Q54.96 1.20 50.76 0.36L50.76 0.36L50.76 0.36Q46.32 1.32 42.12 1.32L42.12 1.32L42.12 1.32Q30 1.32 21.48-4.32L21.48-4.32L21.48-4.32Q12.96-9.96 8.64-20.22L8.64-20.22L8.64-20.22Q4.32-30.48 4.32-44.04L4.32-44.04L4.32-44.04Q4.32-57.84 9.54-68.28L9.54-68.28L9.54-68.28Q14.76-78.72 23.88-84.42L23.88-84.42L23.88-84.42Q33-90.12 44.52-90.12L44.52-90.12L44.52-90.12Q63.24-90.12 73.08-78.30L73.08-78.30L73.08-78.30Q82.92-66.48 82.92-45.60L82.92-45.60L82.92-45.60Q82.92-30.12 76.50-18.84L76.50-18.84L76.50-18.84Q70.08-7.56 59.16-2.40L59.16-2.40L59.16-2.40Q64.56-1.92 69.60 0.24L69.60 0.24L69.60 0.24Q74.64 2.40 81.48 6.36L81.48 6.36L81.48 6.36Q89.04 10.44 93.72 12.36L93.72 12.36L93.72 12.36Q98.40 14.28 103.32 14.28L103.32 14.28L103.32 14.28Q105.36 14.28 107.04 14.04L107.04 14.04L108.48 19.20L108.48 19.20Q106.32 21.48 103.32 22.62L103.32 22.62L103.32 22.62Q100.32 23.76 97.08 23.76L97.08 23.76ZM43.44-5.04L43.44-5.04Q55.08-5.04 61.80-15.42L61.80-15.42L61.80-15.42Q68.52-25.80 68.52-45.48L68.52-45.48L68.52-45.48Q68.52-63.60 62.04-73.74L62.04-73.74L62.04-73.74Q55.56-83.88 43.80-83.88L43.80-83.88L43.80-83.88Q32.16-83.88 25.38-73.80L25.38-73.80L25.38-73.80Q18.60-63.72 18.60-44.04L18.60-44.04L18.60-44.04Q18.60-26.04 25.14-15.54L25.14-15.54L25.14-15.54Q31.68-5.04 43.44-5.04L43.44-5.04ZM137.88-74.88L144.84-83.40L109.32-82.08L103.20-66.12L96.36-67.08L99-89.52L157.20-89.52L159.96-84.36L114.36-15.24L106.32-6.36L147.84-8.52L154.08-27.36L161.16-25.80L158.40 0L94.56 0L91.32-5.28L137.88-74.88ZM176.64-7.08L185.40-81.72L172.32-83.16L172.32-89.16L204.12-89.16L221.04-35.16L225-19.92L228.60-35.16L245.40-89.16L276.96-89.16L276.96-83.16L263.76-81.72L273.36-7.20L283.80-5.88L283.80 0L249.24 0L249.24-5.88L260.16-7.08L254.76-60.96L252.24-84.12L247.20-66.84L227.16-4.08L219.36-4.08L199.92-61.56L192.84-84.24L190.68-60.96L185.88-7.08L197.76-5.88L197.76 0L166.44 0L166.44-5.88L176.64-7.08Z"></path></g></g><style>text {  font-size: 64px;  font-family: Arial Black;  dominant-baseline: central;  text-anchor: middle;}</style></svg>